<svg height="514pt" viewBox="-16 -18 514.66681 514" width="514pt" xmlns="http://www.w3.org/2000/svg"><path d="m336.289062 417.871094c-1.414062 0-2.835937-.066406-4.273437-.203125-11.949219-1.117188-22.761719-6.824219-30.421875-16.070313l-7-8.449218-167.617188-23.945313c-4.664062-.660156-7.902343-4.984375-7.234374-9.644531.671874-4.65625 5.011718-7.902344 9.648437-7.234375l170.871094 24.410156c2.097656.300781 4.003906 1.363281 5.351562 3l9.105469 10.980469c4.761719 5.738281 11.464844 9.28125 18.890625 9.976562 7.453125.703125 14.667969-1.542968 20.394531-6.296875l93.183594-77.21875c5.734375-4.757812 9.28125-11.464843 9.972656-18.886719.703125-7.414062-1.539062-14.664062-6.292968-20.402343l-118.453126-142.929688c-9.835937-11.851562-27.453124-13.503906-39.304687-3.679687l-93.171875 77.214844c-11.839844 9.820312-13.496094 27.449218-3.679688 39.292968l63.804688 76.976563c2.15625 2.597656 2.570312 6.21875 1.074219 9.238281-1.507813 3.019531-4.402344 4.792969-8.015625 4.722656l-125.347656-5.621094c-4.703126-.214843-8.34375-4.199218-8.132813-8.902343.207031-4.703125 4.179687-8.296875 8.902344-8.132813l106.105469 4.757813-51.511719-62.15625c-15.824219-19.085938-13.164063-47.476563 5.917969-63.304688l93.179687-77.21875c19.066406-15.816406 47.484375-13.148437 63.296875 5.925781l118.453125 142.929688c7.667969 9.246094 11.273437 20.925781 10.152344 32.878906-1.117188 11.953125-6.824219 22.757813-16.078125 30.421875l-93.167969 77.226563c-8.132813 6.742187-18.160156 10.34375-28.601563 10.34375zm0 0"/><path d="m88.648438 393.394531c-1.777344 0-3.546876-.5625-5.027344-1.644531-2.421875-1.773438-3.738282-4.6875-3.464844-7.679688l8.539062-91.152343c.28125-2.988281 2.109376-5.609375 4.828126-6.898438 2.6875-1.292969 5.894531-1.058593 8.390624.597657l30.984376 20.667968c2.605468 1.742188 4.054687 4.765625 3.761718 7.886719l-5.234375 55.9375c-.300781 3.117187-2.273437 5.824219-5.160156 7.046875l-34.285156 14.554688c-1.066407.457031-2.207031.683593-3.332031.683593zm15.695312-84.660156-5.867188 62.695313 16.433594-6.976563 4.296875-45.800781zm0 0"/><path d="m198.324219 272.152344c-2.457031 0-4.890625-1.046875-6.570313-3.082032-57.777344-69.722656-48.066406-173.445312 21.648438-231.21875 69.707031-57.78125 173.441406-48.074218 231.21875 21.644532 48.164062 58.113281 50.640625 141.121094 6.035156 201.878906-2.769531 3.800781-8.109375 4.621094-11.914062 1.832031-3.796876-2.785156-4.609376-8.125-1.820313-11.917969 39.957031-54.441406 37.722656-128.835937-5.417969-180.910156-25.09375-30.265625-60.460937-48.949218-99.605468-52.617187-39.089844-3.667969-77.355469 8.132812-107.621094 33.21875-62.472656 51.777343-71.175782 144.726562-19.402344 207.207031 3.003906 3.625 2.507812 9-1.121094 12.003906-1.59375 1.324219-3.519531 1.960938-5.429687 1.960938zm0 0"/><path d="m331.984375 336.34375c-9.851563 0-18.851563-5.210938-23.761719-13.867188l-6.820312-12.023437-13.769532-1.195313c-10.464843-.910156-19.335937-7.550781-23.140624-17.324218-3.8125-9.785156-1.78125-20.664063 5.296874-28.410156l9.324219-10.207032-3.121093-13.464844c-2.363282-10.226562 1.203124-20.710937 9.332031-27.355468 8.121093-6.652344 19.097656-8.085938 28.652343-3.746094l12.585938 5.71875 11.851562-7.128906c8.980469-5.40625 20.054688-5.261719 28.890626.414062 8.835937 5.671875 13.597656 15.667969 12.421874 26.097656l-1.546874 13.738282 10.433593 9.0625c7.925781 6.875 11.199219 17.457031 8.542969 27.613281-2.664062 10.148437-10.707031 17.765625-20.992188 19.867187l-13.539062 2.777344-5.394531 12.734375c-4.097657 9.664063-13.148438 16.039063-23.621094 16.644531-.542969.035157-1.085937.054688-1.625.054688zm-29.375-113.019531c-2.3125 0-4.570313.804687-6.484375 2.371093-3.109375 2.539063-4.421875 6.394532-3.511719 10.3125l4.125 17.832032c.636719 2.730468-.121093 5.605468-2.007812 7.671875l-12.347657 13.519531c-2.71875 2.96875-3.460937 6.972656-2 10.703125 1.457032 3.75 4.714844 6.1875 8.722657 6.539063l18.234375 1.582031c2.796875.242187 5.292968 1.84375 6.691406 4.28125l9.027344 15.925781c1.988281 3.488281 5.371094 5.46875 9.570312 5.203125 4.003906-.226563 7.335938-2.574219 8.902344-6.273437l7.140625-16.859376c1.105469-2.585937 3.390625-4.464843 6.148437-5.027343l17.933594-3.667969c3.933594-.808594 6.882813-3.609375 7.910156-7.492188 1.019532-3.886718-.191406-7.777343-3.222656-10.410156l-13.820312-12.007812c-2.121094-1.839844-3.199219-4.601563-2.886719-7.390625l2.046875-18.191407c.449219-3.992187-1.296875-7.671874-4.679688-9.835937-3.378906-2.175781-7.441406-2.234375-10.890624-.15625l-15.6875 9.441406c-2.414063 1.441407-5.359376 1.613281-7.917969.457031l-16.664063-7.566406c-1.425781-.644531-2.890625-.960937-4.332031-.960937zm0 0"/><path d="m329.238281 298.707031c-.917969 0-1.832031-.039062-2.757812-.125-7.742188-.726562-14.730469-4.414062-19.691407-10.40625-4.953124-5.972656-7.285156-13.527343-6.5625-21.269531.726563-7.734375 4.417969-14.726562 10.402344-19.683594 12.324219-10.230468 30.714844-8.523437 40.957032 3.832032v.003906c4.960937 5.980468 7.292968 13.539062 6.570312 21.269531-.734375 7.738281-4.425781 14.726563-10.410156 19.6875-5.265625 4.367187-11.746094 6.691406-18.507813 6.691406zm-.058593-41.117187c-2.714844 0-5.433594.902344-7.671876 2.765625-2.476562 2.054687-4.003906 4.945312-4.300781 8.144531-.304687 3.199219.660157 6.324219 2.710938 8.796875 2.054687 2.476563 4.945312 4.007813 8.144531 4.308594 3.183594.316406 6.324219-.664063 8.800781-2.71875 5.109375-4.234375 5.824219-11.832031 1.597657-16.9375-2.378907-2.875-5.820313-4.359375-9.28125-4.359375zm0 0"/><path d="m38.367188 477.550781c-21.15625 0-38.367188-17.210937-38.367188-38.371093 0-18.4375 26.320312-53.71875 31.597656-60.609376 3.230469-4.203124 10.308594-4.203124 13.539063 0 5.28125 6.890626 31.601562 42.171876 31.601562 60.609376 0 21.160156-17.214843 38.371093-38.371093 38.371093zm0-79.332031c-10.363282 14.820312-21.316407 33.324219-21.316407 40.964844 0 11.753906 9.558594 21.316406 21.316407 21.316406 11.757812 0 21.3125-9.5625 21.3125-21.316406 0-7.640625-10.945313-26.144532-21.3125-40.964844zm0 0"/></svg>